<?xml version="1.0" encoding="iso-8859-1"?>
<!-- Uploaded to: SVG Repo, www.svgrepo.com, Generator: SVG Repo Mixer Tools -->
<svg height="800px" width="800px" version="1.1" id="Layer_1" xmlns="http://www.w3.org/2000/svg" xmlns:xlink="http://www.w3.org/1999/xlink" 
	 viewBox="0 0 512 512" xml:space="preserve">
<path style="fill:#E9A440;" d="M421.135,59.194c-78.931-78.927-207.359-78.925-286.286,0.003
	c-47.678,47.678-68.314,116.397-55.473,182.156l-1.533,1.532c-29.776,29.776-46.174,69.363-46.173,111.473
	c0,42.107,16.396,81.695,46.171,111.47c0.002,0.003-0.002,0,0.002,0.002C107.616,495.602,147.206,512,189.313,512
	c42.108,0,81.697-16.396,111.473-46.173L421.136,345.48C500.061,266.553,500.061,138.125,421.135,59.194z"/>
<path style="fill:#E17858;" d="M421.135,59.194L50.717,429.61c7.16,13.145,16.246,25.34,27.124,36.218
	c0.002,0.003-0.002,0,0.002,0.002C107.616,495.602,147.206,512,189.313,512c42.108,0,81.697-16.396,111.473-46.173L421.136,345.48
	C500.061,266.553,500.061,138.125,421.135,59.194z"/>
<path style="fill:#D6E5F6;" d="M228.615,251.716c-27.228-27.228-27.228-71.531,0-98.757c13.189-13.189,30.726-20.453,49.377-20.453
	c18.653,0,36.187,7.264,49.374,20.451c0.002,0.002,0.002,0.002,0.003,0.003c13.19,13.187,20.454,30.724,20.454,49.377
	s-7.266,36.188-20.456,49.379c-13.187,13.187-30.721,20.451-49.376,20.451C259.34,272.169,241.804,264.905,228.615,251.716z
	 M294.451,185.878c-4.396-4.396-10.242-6.817-16.457-6.817c-6.217,0-12.062,2.422-16.458,6.817c-9.077,9.077-9.077,23.844,0,32.92
	c4.396,4.396,10.242,6.817,16.458,6.817c6.217,0.002,12.061-2.422,16.455-6.817c4.399-4.398,6.822-10.243,6.822-16.46
	C301.27,196.121,298.849,190.276,294.451,185.878L294.451,185.878z"/>
<g>
	<path style="fill:#E9A440;" d="M231.156,370.863C231.154,370.861,231.156,370.863,231.156,370.863l-69.318-69.321
		c-9.091-9.092-9.089-23.828,0-32.92c9.089-9.089,23.828-9.087,32.919,0.002l10.971,10.971l58.347,58.35
		c9.091,9.091,9.089,23.827-0.002,32.919C254.982,379.953,240.243,379.952,231.156,370.863z"/>
	<path style="fill:#E9A440;" d="M168.284,424.599C168.284,424.598,168.284,424.599,168.284,424.599l-60.181-60.184
		c-9.091-9.091-9.091-23.828,0-32.92c9.091-9.087,23.83-9.087,32.919,0c0.002,0.002,0,0,0,0l60.182,60.184
		c9.089,9.089,9.089,23.828,0,32.92C192.114,433.69,177.373,433.688,168.284,424.599z"/>
</g>
<path style="fill:#BCD6F2;" d="M347.824,202.339c0-18.654-7.264-36.19-20.454-49.377l-0.002-0.002l-32.919,32.919l0.002,0.002
	c4.396,4.396,6.819,10.242,6.819,16.459c0,6.217-2.422,12.062-6.822,16.46c-4.395,4.395-10.24,6.817-16.455,6.817
	c-6.218,0-12.062-2.421-16.459-6.817c0,0,0,0-0.002-0.002l-32.919,32.919c0.002,0.002,0.002,0.002,0.002,0.002
	c13.189,13.189,30.724,20.453,49.377,20.453c18.654,0,36.188-7.264,49.376-20.451C340.56,238.528,347.824,220.991,347.824,202.339z"
	/>
</svg>